<svg xmlns="http://www.w3.org/2000/svg" width="144" height="48" viewBox="0 0 144 48"><rect width="144" height="48" fill="#f5eedc"/><g fill="none" stroke="#7f986a" stroke-width="1.1" opacity=".9"><path d="M15 42c0-12 9-17 12-25M55 43c1-11 8-17 12-26M103 43c0-13 8-18 13-28M134 43c-3-9-7-15-13-22"/><path d="M18 29c-6-2-8-5-9-9M20 31c5-1 9-4 10-8M58 30c-6-2-8-5-9-9M60 31c5-1 9-4 10-8M108 28c-6-2-8-5-9-9M110 30c5-1 9-4 10-8"/></g><g fill="#e3a441" stroke="#c98138" stroke-width=".7"><g transform="translate(27 17)"><circle r="3"/><path d="M0-9C7-8 7-2 3 0 7 3 5 8 0 6-5 8-7 3-3 0-7-2-7-8 0-9Z"/></g><g transform="translate(67 17)"><circle r="3"/><path d="M0-9C7-8 7-2 3 0 7 3 5 8 0 6-5 8-7 3-3 0-7-2-7-8 0-9Z"/></g><g transform="translate(116 15)"><circle r="3"/><path d="M0-9C7-8 7-2 3 0 7 3 5 8 0 6-5 8-7 3-3 0-7-2-7-8 0-9Z"/></g></g></svg>
