<svg xmlns="http://www.w3.org/2000/svg" viewBox="0 0 28 48">
  <defs>
    <filter id="n"><feTurbulence type="fractalNoise" baseFrequency=".9" numOctaves="2" stitchTiles="stitch"/><feColorMatrix values="1 0 0 0 0 0 1 0 0 0 0 0 1 0 0 0 0 0 .12 0"/></filter>
  </defs>
  <path fill="#eef7f6" d="M4 0h24v48H4C2.2 44.5 3 40 1.8 36.5 3.3 32.4.8 28.6 2.6 24 1 19.1 3.4 15 2.1 10.8 3.6 7 1.9 3.7 4 0Z"/>
  <path fill="#7db8d6" opacity=".22" d="M5 8c7-4 15 3 23-1v8c-9 4-16-4-24 1V8Zm0 22c8-4 15 3 23-1v10c-9 4-16-4-24 1V30Z"/>
  <rect width="28" height="48" filter="url(#n)" opacity=".2"/>
</svg>
