<svg xmlns="http://www.w3.org/2000/svg" viewBox="0 0 64 48">
  <defs>
    <filter id="n"><feTurbulence type="fractalNoise" baseFrequency=".85" numOctaves="2" stitchTiles="stitch"/><feColorMatrix values="1 0 0 0 0 0 1 0 0 0 0 0 1 0 0 0 0 0 .12 0"/></filter>
  </defs>
  <rect width="64" height="48" fill="#eef7f6"/>
  <path d="M-4 37c11-11 18 1 29-9 12-10 23 0 43-11" fill="none" stroke="#77b5d8" stroke-width="1.5" opacity=".58"/>
  <path d="M7 34c4-5 8-5 12-1M43 21c4-4 7-5 12-2" fill="none" stroke="#94c6df" stroke-width="1.2" opacity=".7"/>
  <g fill="#76acd0" opacity=".94">
    <path d="M13 20c4-4 8-1 9 2-3 2-6 2-9-4 1 2 1 3 0 5-2-1-3-2-4-4 1 0 2 0 4 1Z"/>
    <path d="M45 33c4-4 8-1 9 2-3 2-6 2-9-4 1 2 1 3 0 5-2-1-3-2-4-4 1 0 2 0 4 1Z"/>
  </g>
  <g fill="#b8d9e8"><ellipse cx="27" cy="15" rx="3" ry="1.5" transform="rotate(-28 27 15)"/><ellipse cx="32" cy="12" rx="3" ry="1.5" transform="rotate(20 32 12)"/><ellipse cx="57" cy="9" rx="3" ry="1.5" transform="rotate(-35 57 9)"/></g>
  <rect width="64" height="48" filter="url(#n)" opacity=".2"/>
</svg>
