<svg xmlns="http://www.w3.org/2000/svg" viewBox="0 0 240 160">
  <defs>
    <linearGradient id="paper" x1="0" y1="0" x2="1" y2="1">
      <stop stop-color="#fbffff"/>
      <stop offset=".5" stop-color="#e8f5f5"/>
      <stop offset="1" stop-color="#c5e2e8"/>
    </linearGradient>
    <filter id="shadow" x="-30%" y="-30%" width="160%" height="180%"><feGaussianBlur in="SourceAlpha" stdDeviation="6"/><feOffset dy="8"/><feComponentTransfer><feFuncA type="linear" slope=".24"/></feComponentTransfer><feMerge><feMergeNode/><feMergeNode in="SourceGraphic"/></feMerge></filter>
    <pattern id="bird" width="46" height="28" patternUnits="userSpaceOnUse">
      <path d="M-4 23c9-8 15 2 24-6 9-8 18 0 31-8" fill="none" stroke="#77b5d8" stroke-width="1.3" opacity=".55"/>
      <path d="M15 13c4-4 8-1 9 2-3 2-6 2-9-4 1 2 1 3 0 5-2-1-3-2-4-4 1 0 2 0 4 1Z" fill="#76acd0"/>
      <path d="M37 22c4-4 8-1 9 2-3 2-6 2-9-4 1 2 1 3 0 5-2-1-3-2-4-4 1 0 2 0 4 1Z" fill="#76acd0"/>
    </pattern>
    <linearGradient id="core" x1="0" y1="0" x2=".9" y2="1"><stop stop-color="#f4ead2"/><stop offset=".45" stop-color="#bba77d"/><stop offset="1" stop-color="#705f49"/></linearGradient>
  </defs>
  <g filter="url(#shadow)">
    <path d="M120 106 215 114c13 1 17 10 7 18l-86 12Z" fill="url(#paper)" opacity=".86"/>
    <path d="M120 106 215 114c13 1 17 10 7 18l-86 12Z" fill="url(#bird)" opacity=".86"/>
    <ellipse cx="102" cy="78" rx="72" ry="55" fill="url(#paper)" stroke="#fff" stroke-opacity=".85" stroke-width="2"/>
    <ellipse cx="102" cy="78" rx="68" ry="51" fill="url(#bird)" opacity=".84"/>
    <ellipse cx="102" cy="78" rx="60" ry="45" fill="none" stroke="#c4e0e6" stroke-width="4" opacity=".72"/>
    <ellipse cx="102" cy="78" rx="50" ry="37" fill="none" stroke="#f7ffff" stroke-width="3" opacity=".75"/>
    <ellipse cx="102" cy="78" rx="24" ry="19" fill="url(#core)" stroke="#f6ecd6" stroke-width="5"/>
    <ellipse cx="102" cy="78" rx="13" ry="10" fill="#504b43"/>
    <path d="M61 46c17-18 48-25 68-12" fill="none" stroke="#fff" stroke-width="7" stroke-linecap="round" opacity=".48"/>
  </g>
</svg>
