<svg xmlns="http://www.w3.org/2000/svg" width="160" height="48" viewBox="0 0 160 48"><rect width="160" height="48" fill="#e8d8bd"/><g fill="#5b4938" opacity=".7"><path d="M4 7h42v2H4zm0 5h36v1H4zm0 4h40v2H4zm0 5h31v1H4zm0 4h42v2H4zM53 7h48v2H53zm0 5h35v1H53zm0 4h43v2H53zm0 5h38v1H53zm0 4h46v2H53zM111 7h44v2h-44zm0 5h33v1h-33zm0 4h42v2h-42zm0 5h36v1h-36zm0 4h45v2h-45zM4 33h42v1H4zm49 0h48v1H53zm58 0h44v1h-44zm-107 5h42v2H4zm49 0h48v2H53zm58 0h44v2h-44z"/></g><path d="M50 4v40M106 4v40" stroke="#806951" stroke-width="1" opacity=".55"/></svg>
